<svg xmlns="http://www.w3.org/2000/svg" width="27.768" height="24.752" viewBox="0 0 27.768 24.752"><defs><style>.a{fill:#b9ea6a;}</style></defs><path class="a" d="M23.547,33.828c-.523-.2-1.081-.384-1.667-.547.151-.59.272-1.164.36-1.718.454-2.881-.048-4.9-1.414-5.69a2.675,2.675,0,0,0-1.356-.346c-1.588,0-3.6,1.18-5.62,3.172-.442-.434-.887-.833-1.329-1.191-2.267-1.834-4.269-2.409-5.634-1.621A3.618,3.618,0,0,0,5.343,28.88a.443.443,0,0,0,.882.08,2.905,2.905,0,0,1,1.1-2.305c1.011-.584,2.7-.022,4.634,1.542.422.341.846.722,1.268,1.136a28.7,28.7,0,0,0-2.506,3.093,28.508,28.508,0,0,0-4.035.647,16.094,16.094,0,0,1-.443-2.412.443.443,0,0,0-.882.087A16.949,16.949,0,0,0,5.834,33.3c-.567.16-1.107.337-1.614.532C1.5,34.875,0,36.32,0,37.9s1.5,3.022,4.221,4.069c.523.2,1.081.384,1.667.547-.151.59-.272,1.164-.36,1.718-.454,2.881.048,4.9,1.414,5.69a2.675,2.675,0,0,0,1.356.346c1.57,0,3.549-1.153,5.55-3.1.429.419.859.8,1.288,1.151a7.349,7.349,0,0,0,4.283,1.965,2.662,2.662,0,0,0,1.352-.345c1.366-.789,1.868-2.809,1.414-5.69-.087-.553-.208-1.128-.36-1.717a17.029,17.029,0,0,0,2.494-.884.443.443,0,0,0-.366-.807,16.173,16.173,0,0,1-2.366.838,28.516,28.516,0,0,0-1.417-3.711,28.643,28.643,0,0,0,1.474-3.836c3.289.921,5.238,2.375,5.238,3.769a2.9,2.9,0,0,1-1.445,2.109.443.443,0,1,0,.511.724,3.617,3.617,0,0,0,1.82-2.833c0-1.577-1.5-3.022-4.221-4.069ZM19.47,26.414a1.8,1.8,0,0,1,.913.227c1.011.584,1.369,2.328.981,4.784-.083.526-.2,1.073-.342,1.635a28.656,28.656,0,0,0-4.049-.64,28.58,28.58,0,0,0-2.5-3.087q.235-.232.471-.449c1.728-1.592,3.337-2.469,4.53-2.469Zm-5.618,3.554a26.879,26.879,0,0,1,1.969,2.369q-.954-.052-1.936-.053c-.675,0-1.343.019-2,.056A27.413,27.413,0,0,1,13.852,29.968Zm0,15.932a26.831,26.831,0,0,1-2.037-2.45c.68.04,1.373.06,2.073.06.675,0,1.343-.02,2-.057A27.258,27.258,0,0,1,13.848,45.9Zm.036-3.276c-.952,0-1.866-.037-2.736-.105-.489-.713-.962-1.464-1.412-2.244s-.851-1.542-1.22-2.313c.383-.807.81-1.62,1.276-2.427.451-.782.931-1.54,1.428-2.263.849-.065,1.739-.1,2.665-.1.9,0,1.77.033,2.6.1.5.725.98,1.488,1.439,2.282s.888,1.612,1.27,2.415c-.367.765-.773,1.534-1.215,2.3-.45.78-.929,1.537-1.426,2.259-.869.068-1.762.1-2.668.1Zm-3.877-.216a26.484,26.484,0,0,1-3.025-.521A26.774,26.774,0,0,1,8.041,39q.434.859.926,1.713Q9.47,41.588,10.007,42.408Zm.07-9.029q-.542.826-1.054,1.712Q8.5,36,8.038,36.918a27.18,27.18,0,0,1-1.11-3A26.488,26.488,0,0,1,10.078,33.379ZM.886,37.9c0-1.387,1.928-2.833,5.185-3.755a28.918,28.918,0,0,0,1.466,3.819,28.5,28.5,0,0,0-1.413,3.7C2.835,40.746.886,39.292.886,37.9ZM8.3,49.381a1.8,1.8,0,0,1-.913-.227C6.374,48.57,6.016,46.826,6.4,44.37c.083-.526.2-1.073.342-1.635a28.5,28.5,0,0,0,3.91.627,28.56,28.56,0,0,0,2.572,3.17q-.2.2-.4.379C11.1,48.5,9.491,49.381,8.3,49.381Zm13.01-5c.388,2.457.03,4.2-.981,4.784s-2.7.022-4.634-1.542c-.407-.329-.816-.7-1.224-1.093a28.579,28.579,0,0,0,2.574-3.166,28.937,28.937,0,0,0,3.922-.621C21.11,43.309,21.225,43.856,21.309,44.383Zm-.581-2.49a27.2,27.2,0,0,1-3.033.517q.539-.823,1.05-1.706.489-.847.92-1.7a26.775,26.775,0,0,1,1.063,2.888Zm-1.059-4.971q-.457-.909-.98-1.817t-1.068-1.734a26.641,26.641,0,0,1,3.165.537A26.923,26.923,0,0,1,19.669,36.921Z" transform="translate(0 -25.528)"/><path class="a" d="M199.716,197.392a2.216,2.216,0,1,0,2.216,2.216A2.218,2.218,0,0,0,199.716,197.392Zm0,3.545a1.329,1.329,0,1,1,1.329-1.329A1.331,1.331,0,0,1,199.716,200.937Z" transform="translate(-185.831 -187.238)"/></svg>