<svg xmlns="http://www.w3.org/2000/svg" width="33" height="29.979" viewBox="0 0 33 29.979">
  <g id="programming-code" transform="translate(0 -17.951)">
    <g id="Group_19" data-name="Group 19" transform="translate(0 17.951)">
      <g id="Group_18" data-name="Group 18" transform="translate(0 0)">
        <path id="Path_23" data-name="Path 23" d="M31.017,17.951H1.983A1.985,1.985,0,0,0,0,19.934V45.947A1.985,1.985,0,0,0,1.983,47.93H31.017A1.985,1.985,0,0,0,33,45.947V19.934A1.985,1.985,0,0,0,31.017,17.951Zm-5.979,3.33a.732.732,0,0,1,.732-.732H26.5a.732.732,0,0,1,.732.732v.83a.732.732,0,0,1-.732.732H25.77a.732.732,0,0,1-.732-.732Zm-3.405,0a.732.732,0,0,1,.732-.732H23.1a.732.732,0,0,1,.732.732v.83a.732.732,0,0,1-.732.732h-.732a.732.732,0,0,1-.732-.732ZM30.62,45.55H2.38V25.043H30.62V45.55Zm.019-23.439a.732.732,0,0,1-.732.732h-.732a.732.732,0,0,1-.732-.732v-.83a.732.732,0,0,1,.732-.732h.732a.732.732,0,0,1,.732.732Z" transform="translate(0 -17.951)" fill="#fff"/>
        <path id="Path_24" data-name="Path 24" d="M77.691,184.216,83,186.685a1.032,1.032,0,0,0,1.466-.936v-.027a1.035,1.035,0,0,0-.6-.936l-3.32-1.543,3.32-1.543a1.035,1.035,0,0,0,.6-.935v-.027a1.03,1.03,0,0,0-1.033-1.031,1.037,1.037,0,0,0-.434.1l-5.308,2.468a1.035,1.035,0,0,0-.6.935v.074A1.036,1.036,0,0,0,77.691,184.216Z" transform="translate(-70.607 -166.097)" fill="#fff"/>
        <path id="Path_25" data-name="Path 25" d="M163.1,157.259a1.035,1.035,0,0,0,.833.423h.027a1.028,1.028,0,0,0,.982-.717l3.5-10.834a1.031,1.031,0,0,0-.982-1.347h-.027a1.029,1.029,0,0,0-.983.717l-3.5,10.835A1.036,1.036,0,0,0,163.1,157.259Z" transform="translate(-149.193 -134.113)" fill="#fff"/>
        <path id="Path_26" data-name="Path 26" d="M227.49,180.766a1.037,1.037,0,0,0,.6.936l3.32,1.542-3.32,1.542a1.035,1.035,0,0,0-.6.936v.027a1.032,1.032,0,0,0,1.467.936l5.308-2.468a1.036,1.036,0,0,0,.6-.935v-.074a1.035,1.035,0,0,0-.6-.935l-5.308-2.468a1.032,1.032,0,0,0-1.466.936v.027h0Z" transform="translate(-208.348 -166.097)" fill="#fff"/>
      </g>
    </g>
  </g>
</svg>
