<svg xmlns="http://www.w3.org/2000/svg" width="29.5" height="26.818" viewBox="0 0 29.5 26.818"><g transform="translate(0 -21.333)"><g transform="translate(0 21.333)"><path d="M15.917,38.865h0L12.511,35.5l.04-.04A23.492,23.492,0,0,0,17.526,26.7h3.929V24.015H12.068V21.333H9.386v2.682H0v2.668H14.978a21.178,21.178,0,0,1-4.251,7.187,21.145,21.145,0,0,1-3.1-4.492H4.948a23.549,23.549,0,0,0,4,6.115L2.125,42.231l1.9,1.9,6.7-6.7,4.17,4.17Z" transform="translate(0 -21.333)" fill="#fff"/><path d="M243.382,192H240.7l-6.034,16.091h2.682l1.509-4.023h6.369l1.509,4.023h2.682Zm-3.52,9.386,2.179-5.813,2.179,5.813Z" transform="translate(-219.916 -181.273)" fill="#fff"/></g></g></svg>